<?xml version="1.0" encoding="UTF-8"?>
<svg id="Layer_1" data-name="Layer 1" xmlns="http://www.w3.org/2000/svg" viewBox="0 0 861.32 163.62">
  <defs>
    <style>
      .cls-1 {
        fill: #fff;
      }
    </style>
  </defs>
  <polygon class="cls-1" points="29.34 140.74 77.01 140.74 77.01 128.09 43.65 128.09 43.65 40.73 77.01 40.73 77.01 28.08 29.34 28.08 29.34 140.74"/>
  <polygon class="cls-1" points="122.82 100.75 103.62 56.44 87.95 56.44 115.9 120.76 128.91 120.76 157.07 56.44 142.33 56.44 122.82 100.75"/>
  <path class="cls-1" d="M201.91,54.78c-5.77,0-11.07,1.53-15.78,4.56-4.69,3.01-8.38,7.27-10.98,12.66-2.57,5.32-3.87,10.94-3.87,16.72s1.37,11.73,4.08,17.01c2.73,5.32,6.43,9.47,11,12.35,4.59,2.89,9.86,4.36,15.65,4.36,7.41,0,15.35-1.97,23.59-5.86l1.24-.58v-14.16l-3.2,1.77c-7.45,4.11-14.29,6.19-20.33,6.19-3.2,0-6.07-.76-8.54-2.27-2.47-1.5-4.5-3.82-6.04-6.88-1.27-2.52-2.04-5.3-2.29-8.28h41.27v-4.31c0-11.06-2.35-19.43-6.99-24.88-4.72-5.56-11.05-8.38-18.81-8.38ZM201.48,67.42c3.36,0,5.97,1.16,7.95,3.56,1.94,2.34,2.98,5.57,3.09,9.58h-25.01c1.13-4.03,2.8-7.17,4.99-9.35,2.56-2.55,5.49-3.79,8.97-3.79Z"/>
  <path class="cls-1" d="M282.62,54.78c-8.94,0-16.68,3.25-23,9.67-6.31,6.41-9.51,14.54-9.51,24.18,0,6.39,1.41,12.19,4.19,17.24,2.79,5.06,6.73,9.13,11.72,12.09,4.99,2.96,10.75,4.47,17.14,4.47s12.92-1.18,19.81-3.5l1.47-.5v-14.18l-2.85.97c-5.54,1.88-9.35,2.98-11.32,3.26-2,.29-4.07.43-6.14.43-6.54,0-11.17-2.1-14.15-6.42-3.11-4.51-4.69-9.31-4.69-14.24,0-3.71.82-7.39,2.44-10.92,1.57-3.44,3.72-5.88,6.56-7.48,2.88-1.62,6-2.44,9.26-2.44,5.18,0,11.18,1.54,17.85,4.58l3.06,1.4v-14.53l-1.47-.5c-7.1-2.39-13.95-3.6-20.35-3.6Z"/>
  <path class="cls-1" d="M363.72,109.78c-2.27,0-4.24-.4-5.85-1.18-1.53-.74-2.73-1.89-3.67-3.51-.65-1.13-1.43-3.64-1.43-9.15v-21.85h26.69v-12.65h-26.69v-24.17h-14.31v24.17h-14.99v12.65h14.99v22.01c0,7.03.96,12.16,2.94,15.67,1.99,3.54,4.96,6.25,8.84,8.04,3.74,1.74,7.92,2.62,12.4,2.62,2.08,0,4.27-.2,6.5-.6,2.29-.41,5.78-1.6,10.66-3.65l1.32-.56v-13.96l-3.23,1.84c-4.98,2.84-9.75,4.28-14.18,4.28Z"/>
  <path class="cls-1" d="M430.5,54.78c-9.2,0-16.69,3.27-22.24,9.72-5.47,6.36-8.25,14.46-8.25,24.08s2.78,17.73,8.25,24.1c5.56,6.47,13.04,9.75,22.25,9.75s16.63-3.28,22.19-9.75c5.47-6.37,8.25-14.48,8.25-24.1s-2.78-17.72-8.25-24.08c-5.56-6.45-13.02-9.72-22.19-9.72ZM441.48,104.41c-2.74,3.62-6.33,5.37-10.99,5.37s-8.3-1.76-11.04-5.38c-2.84-3.75-4.28-9.07-4.28-15.83s1.44-12.03,4.28-15.78c2.74-3.62,6.35-5.38,11.04-5.38s8.25,1.76,10.99,5.37c2.84,3.75,4.28,9.06,4.28,15.78s-1.44,12.08-4.28,15.83Z"/>
  <path class="cls-1" d="M522.09,54.78c-5.32,0-10.22,1.34-14.58,4-2.66,1.62-5.15,3.76-7.43,6.38v-8.71h-14.31v64.32h14.31v-36.43c3.16-5.37,6.42-9.45,9.68-12.13,3.17-2.6,6.39-3.91,9.59-3.91.48,0,1.09.04,1.81.13v13.99h13.93v-25.4l-1.53-.47c-3.81-1.17-7.67-1.76-11.48-1.76Z"/>
  <polygon class="cls-1" points="588.8 56.44 557.84 56.44 557.84 69.09 574.49 69.09 574.49 120.76 605.5 120.76 605.5 108.11 588.8 108.11 588.8 56.44"/>
  <path class="cls-1" d="M576.07,43.66c1.9,1.37,3.78,2.07,5.6,2.07s3.75-.7,5.65-2.07c1.46-1.05,3.2-3.07,3.2-6.73s-1.74-5.73-3.2-6.78c-1.9-1.37-3.8-2.07-5.65-2.07s-3.69.7-5.6,2.07c-1.46,1.05-3.2,3.08-3.2,6.78s1.74,5.68,3.2,6.73Z"/>
  <polygon class="cls-1" points="687.83 67.74 687.83 56.44 634.36 56.44 634.36 69.09 667.71 69.09 633.5 108.61 633.5 120.76 689.07 120.76 689.07 107.25 653.36 107.25 687.83 67.74"/>
  <path class="cls-1" d="M740.98,54.78c-5.77,0-11.07,1.53-15.78,4.56-4.69,3.01-8.38,7.27-10.98,12.66-2.57,5.32-3.87,10.94-3.87,16.72s1.37,11.73,4.08,17.01c2.73,5.32,6.43,9.47,11,12.35,4.59,2.89,9.86,4.36,15.65,4.36,7.41,0,15.35-1.97,23.59-5.86l1.24-.58v-14.16l-3.2,1.77c-7.45,4.11-14.29,6.19-20.33,6.19-3.2,0-6.07-.76-8.54-2.27-2.46-1.5-4.5-3.82-6.04-6.88-1.27-2.52-2.04-5.3-2.29-8.28h41.27v-4.31c0-11.06-2.35-19.43-6.99-24.88-4.72-5.56-11.05-8.38-18.81-8.38ZM740.55,67.42c3.36,0,5.97,1.16,7.95,3.56,1.94,2.34,2.98,5.57,3.09,9.58h-25.01c1.13-4.03,2.8-7.17,4.99-9.35,2.56-2.55,5.49-3.79,8.97-3.79Z"/>
  <polygon class="cls-1" points="783.98 28.08 783.98 40.73 817.34 40.73 817.34 128.09 783.98 128.09 783.98 140.74 831.65 140.74 831.65 28.08 783.98 28.08"/>
</svg>